<mxfile host="app.diagrams.net" agent="Mozilla/5.0 (X11; Linux x86_64) AppleWebKit/537.36 (KHTML, like Gecko) Chrome/131.0.0.0 Safari/537.36" version="26.0.6">
  <diagram name="Page-1" id="AEj9be3scyRBkdBIgRB5">
    <mxGraphModel dx="1362" dy="1893" grid="1" gridSize="10" guides="1" tooltips="1" connect="1" arrows="1" fold="1" page="1" pageScale="1" pageWidth="850" pageHeight="1100" math="0" shadow="0">
      <root>
        <mxCell id="0" />
        <mxCell id="1" parent="0" />
        <mxCell id="HX4Mk4o4h9DkVl9tsVwc-2" value="&#39;O&#39;" style="rounded=0;whiteSpace=wrap;html=1;strokeWidth=8;fontColor=#FF3333;fontSize=80;fillColor=#f5f5f5;strokeColor=#666666;" vertex="1" parent="1">
          <mxGeometry x="40" y="40" width="120" height="120" as="geometry" />
        </mxCell>
        <mxCell id="HX4Mk4o4h9DkVl9tsVwc-12" value="&#39;l&#39;" style="rounded=0;whiteSpace=wrap;html=1;strokeWidth=8;fontColor=#FF3333;fontSize=80;fillColor=#f5f5f5;strokeColor=#666666;" vertex="1" parent="1">
          <mxGeometry x="160" y="40" width="120" height="120" as="geometry" />
        </mxCell>
        <mxCell id="HX4Mk4o4h9DkVl9tsVwc-13" value="&#39;a&#39;" style="rounded=0;whiteSpace=wrap;html=1;strokeWidth=8;fontColor=#FF3333;fontSize=80;fillColor=#f5f5f5;strokeColor=#666666;" vertex="1" parent="1">
          <mxGeometry x="280" y="40" width="120" height="120" as="geometry" />
        </mxCell>
        <mxCell id="HX4Mk4o4h9DkVl9tsVwc-14" value="&#39; &#39;" style="rounded=0;whiteSpace=wrap;html=1;strokeWidth=8;fontColor=#FF3333;fontSize=80;fillColor=#f5f5f5;strokeColor=#666666;" vertex="1" parent="1">
          <mxGeometry x="400" y="40" width="120" height="120" as="geometry" />
        </mxCell>
        <mxCell id="HX4Mk4o4h9DkVl9tsVwc-15" value="&#39;M&#39;" style="rounded=0;whiteSpace=wrap;html=1;strokeWidth=8;fontColor=#FF3333;fontSize=80;fillColor=#f5f5f5;strokeColor=#666666;" vertex="1" parent="1">
          <mxGeometry x="520" y="40" width="120" height="120" as="geometry" />
        </mxCell>
        <mxCell id="HX4Mk4o4h9DkVl9tsVwc-16" value="&#39;u&#39;" style="rounded=0;whiteSpace=wrap;html=1;strokeWidth=8;fontColor=#FF3333;fontSize=80;fillColor=#f5f5f5;strokeColor=#666666;" vertex="1" parent="1">
          <mxGeometry x="640" y="40" width="120" height="120" as="geometry" />
        </mxCell>
        <mxCell id="HX4Mk4o4h9DkVl9tsVwc-17" value="&#39;n&#39;" style="rounded=0;whiteSpace=wrap;html=1;strokeWidth=8;fontColor=#FF3333;fontSize=80;fillColor=#f5f5f5;strokeColor=#666666;" vertex="1" parent="1">
          <mxGeometry x="760" y="40" width="120" height="120" as="geometry" />
        </mxCell>
        <mxCell id="HX4Mk4o4h9DkVl9tsVwc-18" value="&#39;d&#39;" style="rounded=0;whiteSpace=wrap;html=1;strokeWidth=8;fontColor=#FF3333;fontSize=80;fillColor=#f5f5f5;strokeColor=#666666;" vertex="1" parent="1">
          <mxGeometry x="880" y="40" width="120" height="120" as="geometry" />
        </mxCell>
        <mxCell id="HX4Mk4o4h9DkVl9tsVwc-19" value="&#39;o&#39;" style="rounded=0;whiteSpace=wrap;html=1;strokeWidth=8;fontColor=#FF3333;fontSize=80;fillColor=#f5f5f5;strokeColor=#666666;" vertex="1" parent="1">
          <mxGeometry x="1000" y="40" width="120" height="120" as="geometry" />
        </mxCell>
        <mxCell id="HX4Mk4o4h9DkVl9tsVwc-21" value="&#39;\0&#39;" style="rounded=0;whiteSpace=wrap;html=1;strokeWidth=8;fontColor=#67AB9F;fontSize=70;fillColor=#f5f5f5;strokeColor=#666666;" vertex="1" parent="1">
          <mxGeometry x="1120" y="40" width="120" height="120" as="geometry" />
        </mxCell>
        <mxCell id="HX4Mk4o4h9DkVl9tsVwc-22" value="0" style="text;html=1;align=center;verticalAlign=middle;whiteSpace=wrap;rounded=0;fontSize=48;" vertex="1" parent="1">
          <mxGeometry x="70" y="-10" width="60" height="30" as="geometry" />
        </mxCell>
        <mxCell id="HX4Mk4o4h9DkVl9tsVwc-23" value="1" style="text;html=1;align=center;verticalAlign=middle;whiteSpace=wrap;rounded=0;fontSize=48;" vertex="1" parent="1">
          <mxGeometry x="190" y="-10" width="60" height="30" as="geometry" />
        </mxCell>
        <mxCell id="HX4Mk4o4h9DkVl9tsVwc-24" value="2" style="text;html=1;align=center;verticalAlign=middle;whiteSpace=wrap;rounded=0;fontSize=48;" vertex="1" parent="1">
          <mxGeometry x="310" y="-10" width="60" height="30" as="geometry" />
        </mxCell>
        <mxCell id="HX4Mk4o4h9DkVl9tsVwc-25" value="3" style="text;html=1;align=center;verticalAlign=middle;whiteSpace=wrap;rounded=0;fontSize=48;" vertex="1" parent="1">
          <mxGeometry x="430" y="-10" width="60" height="30" as="geometry" />
        </mxCell>
        <mxCell id="HX4Mk4o4h9DkVl9tsVwc-26" value="4" style="text;html=1;align=center;verticalAlign=middle;whiteSpace=wrap;rounded=0;fontSize=48;" vertex="1" parent="1">
          <mxGeometry x="550" y="-10" width="60" height="30" as="geometry" />
        </mxCell>
        <mxCell id="HX4Mk4o4h9DkVl9tsVwc-27" value="5" style="text;html=1;align=center;verticalAlign=middle;whiteSpace=wrap;rounded=0;fontSize=48;" vertex="1" parent="1">
          <mxGeometry x="670" y="-10" width="60" height="30" as="geometry" />
        </mxCell>
        <mxCell id="HX4Mk4o4h9DkVl9tsVwc-28" value="6" style="text;html=1;align=center;verticalAlign=middle;whiteSpace=wrap;rounded=0;fontSize=48;" vertex="1" parent="1">
          <mxGeometry x="790" y="-10" width="60" height="30" as="geometry" />
        </mxCell>
        <mxCell id="HX4Mk4o4h9DkVl9tsVwc-29" value="7" style="text;html=1;align=center;verticalAlign=middle;whiteSpace=wrap;rounded=0;fontSize=48;" vertex="1" parent="1">
          <mxGeometry x="910" y="-10" width="60" height="30" as="geometry" />
        </mxCell>
        <mxCell id="HX4Mk4o4h9DkVl9tsVwc-30" value="8" style="text;html=1;align=center;verticalAlign=middle;whiteSpace=wrap;rounded=0;fontSize=48;" vertex="1" parent="1">
          <mxGeometry x="1030" y="-10" width="60" height="30" as="geometry" />
        </mxCell>
        <mxCell id="HX4Mk4o4h9DkVl9tsVwc-31" value="9" style="text;html=1;align=center;verticalAlign=middle;whiteSpace=wrap;rounded=0;fontSize=48;" vertex="1" parent="1">
          <mxGeometry x="1150" y="-10" width="60" height="30" as="geometry" />
        </mxCell>
        <mxCell id="HX4Mk4o4h9DkVl9tsVwc-32" value="char str[&lt;font style=&quot;color: rgb(166, 128, 184);&quot;&gt;10&lt;/font&gt;] = &lt;font style=&quot;color: rgb(255, 51, 51);&quot;&gt;&quot;Ola Mundo&quot;&lt;/font&gt;" style="text;html=1;align=center;verticalAlign=middle;whiteSpace=wrap;rounded=0;fontSize=80;" vertex="1" parent="1">
          <mxGeometry x="120" y="280" width="1050" height="30" as="geometry" />
        </mxCell>
      </root>
    </mxGraphModel>
  </diagram>
</mxfile>
